<?xml version="1.0" standalone="no"?>
<svg xmlns:xlink="http://www.w3.org/1999/xlink" id="wave" style="transform:rotate(0deg); transition: 0.3s" viewBox="0 0 1440 250" version="1.1" xmlns="http://www.w3.org/2000/svg"><defs><linearGradient id="sw-gradient-0" x1="0" x2="0" y1="1" y2="0"><stop stop-color="rgba(243, 106, 62, 1)" offset="0%"/><stop stop-color="rgba(255, 179, 11, 1)" offset="100%"/></linearGradient></defs><path style="transform:translate(0, 0px); opacity:1" fill="url(#sw-gradient-0)" d="M0,125L80,141.7C160,158,320,192,480,195.8C640,200,800,175,960,145.8C1120,117,1280,83,1440,70.8C1600,58,1760,67,1920,58.3C2080,50,2240,25,2400,37.5C2560,50,2720,100,2880,129.2C3040,158,3200,167,3360,166.7C3520,167,3680,158,3840,129.2C4000,100,4160,50,4320,29.2C4480,8,4640,17,4800,41.7C4960,67,5120,108,5280,112.5C5440,117,5600,83,5760,95.8C5920,108,6080,167,6240,175C6400,183,6560,142,6720,129.2C6880,117,7040,133,7200,145.8C7360,158,7520,167,7680,158.3C7840,150,8000,125,8160,116.7C8320,108,8480,117,8640,112.5C8800,108,8960,92,9120,79.2C9280,67,9440,58,9600,66.7C9760,75,9920,100,10080,104.2C10240,108,10400,92,10560,87.5C10720,83,10880,92,11040,112.5C11200,133,11360,167,11440,183.3L11520,200L11520,250L11440,250C11360,250,11200,250,11040,250C10880,250,10720,250,10560,250C10400,250,10240,250,10080,250C9920,250,9760,250,9600,250C9440,250,9280,250,9120,250C8960,250,8800,250,8640,250C8480,250,8320,250,8160,250C8000,250,7840,250,7680,250C7520,250,7360,250,7200,250C7040,250,6880,250,6720,250C6560,250,6400,250,6240,250C6080,250,5920,250,5760,250C5600,250,5440,250,5280,250C5120,250,4960,250,4800,250C4640,250,4480,250,4320,250C4160,250,4000,250,3840,250C3680,250,3520,250,3360,250C3200,250,3040,250,2880,250C2720,250,2560,250,2400,250C2240,250,2080,250,1920,250C1760,250,1600,250,1440,250C1280,250,1120,250,960,250C800,250,640,250,480,250C320,250,160,250,80,250L0,250Z"/></svg>